<svg width="39" height="39" viewBox="0 0 39 39" fill="none" xmlns="http://www.w3.org/2000/svg">
<g clip-path="url(#clip0_357_857)">
<path d="M22.8112 21.5189L37.1849 7.03444C38.3794 5.83263 38.5833 3.46995 36.5164 2.17935C34.7476 1.30215 33.3797 2.04984 32.7428 2.79909L18.9511 18.1918C20.5672 18.8407 21.9245 20.0106 22.8112 21.5189Z" fill="#898989"/>
<path d="M8.21265 30.3073H16.0775C18.6837 30.3073 20.7964 28.1783 20.7964 25.5521C20.7964 22.9259 18.6837 20.7969 16.0775 20.7969C9.78559 20.7969 8.21265 30.3073 8.21265 30.3073Z" fill="#898989"/>
<path d="M25.5152 30.3069C25.5152 27.6806 27.6279 25.5516 30.2341 25.5516H38.0989V10.5964L23.8794 24.9256C23.8967 25.1364 23.9423 25.3377 23.9423 25.5517C23.937 29.9265 20.4189 33.4719 16.0774 33.4771H8.21263C6.47519 33.4773 5.06653 32.0581 5.0663 30.3073C5.0663 30.1325 5.08061 29.9579 5.10914 29.7854C5.82324 25.4709 8.73952 18.319 15.1651 17.6881L30.3992 0.686534C30.5489 0.53459 30.7064 0.39067 30.8711 0.255368C30.6572 0.237982 30.4528 0.19043 30.2341 0.19043H8.21263C3.87117 0.195705 0.353013 3.74095 0.347778 8.11584V30.3069C0.353013 34.6818 3.87117 38.2271 8.21263 38.2323H25.5153V30.3069H25.5152Z" fill="#898989"/>
<path d="M30.2341 28.7217C29.3654 28.7217 28.6611 29.4313 28.6611 30.3067V37.7566C29.7709 37.3731 30.7805 36.7424 31.6152 35.9116L35.7961 31.6985C36.6206 30.8574 37.2464 29.84 37.627 28.7217H30.2341Z" fill="#898989"/>
</g>
<defs>
<clipPath id="clip0_357_857">
<rect width="37.7512" height="38.0419" fill="white" transform="translate(0.347778 0.19043)"/>
</clipPath>
</defs>
</svg>
