<svg width="42" height="39" viewBox="0 0 42 39" fill="none" xmlns="http://www.w3.org/2000/svg">
<path d="M26.4295 29.6294H7.55391C5.73351 29.6294 3.98766 28.9007 2.70044 27.6035C1.41322 26.3064 0.690063 24.5471 0.690063 22.7127V8.87927C0.690063 6.58625 1.594 4.38713 3.20303 2.76572C4.81206 1.1443 6.99437 0.233398 9.26987 0.233398H17.8497C18.9764 0.233398 20.0921 0.457031 21.133 0.891527C22.174 1.32602 23.1198 1.96287 23.9165 2.76572C24.7132 3.56856 25.3452 4.52167 25.7764 5.57064C26.2076 6.61961 26.4295 7.74388 26.4295 8.87927V29.6294ZM41.8731 17.5252V15.796C41.8731 14.6606 41.6512 13.5363 41.22 12.4873C40.7889 11.4384 40.1569 10.4853 39.3602 9.68242C38.5635 8.87957 37.6176 8.24272 36.5767 7.80823C35.5357 7.37373 34.4201 7.1501 33.2933 7.1501H29.8614V17.5252H41.8731ZM29.8614 20.9835V29.6294H35.0093C36.8297 29.6294 38.5756 28.9007 39.8628 27.6035C41.15 26.3064 41.8731 24.5471 41.8731 22.7127V20.9835H29.8614ZM7.65344 33.0877C7.59058 33.3717 7.55722 33.6614 7.55391 33.9523C7.55391 35.0988 8.00588 36.1984 8.81039 37.0091C9.61491 37.8198 10.7061 38.2753 11.8438 38.2753C12.9816 38.2753 14.0727 37.8198 14.8772 37.0091C15.6817 36.1984 16.1337 35.0988 16.1337 33.9523C16.1304 33.6614 16.0971 33.3717 16.0342 33.0877H7.65344ZM26.529 33.0877C26.4662 33.3717 26.4328 33.6614 26.4295 33.9523C26.4295 35.0988 26.8815 36.1984 27.686 37.0091C28.4905 37.8198 29.5816 38.2753 30.7194 38.2753C31.8571 38.2753 32.9483 37.8198 33.7528 37.0091C34.5573 36.1984 35.0093 35.0988 35.0093 33.9523C35.006 33.6614 34.9726 33.3717 34.9098 33.0877H26.529Z" fill="#898989"/>
</svg>
