<svg width="39" height="39" viewBox="0 0 39 39" fill="none" xmlns="http://www.w3.org/2000/svg">
<g clip-path="url(#clip0_357_859)">
<path d="M3.16885 28.7648C4.46994 31.0403 7.35532 31.8221 9.61346 30.511C9.61501 30.5101 9.61648 30.5092 9.61803 30.5083L10.318 30.1009C11.6393 31.2401 13.158 32.1235 14.7978 32.7068V33.52C14.7978 36.1462 16.9105 38.2753 19.5166 38.2753C22.1228 38.2753 24.2355 36.1462 24.2355 33.52V32.7069C25.8755 32.1227 27.3943 31.2382 28.7153 30.0978L29.4184 30.5068C31.6771 31.8199 34.5645 31.0393 35.8676 28.7632C37.1707 26.4871 36.3961 23.5774 34.1373 22.2643L33.4389 21.8586C33.7533 20.1347 33.7533 18.3675 33.4389 16.6436L34.1373 16.2379C36.396 14.9248 37.1707 12.0152 35.8676 9.73903C34.5645 7.46299 31.6772 6.68231 29.4184 7.99542L28.7185 8.40281C27.3959 7.26505 25.8761 6.38325 24.2355 5.80177V4.98863C24.2355 2.3624 22.1228 0.233398 19.5166 0.233398C16.9105 0.233398 14.7978 2.3624 14.7978 4.98863V5.80177C13.1578 6.386 11.639 7.27047 10.318 8.41084L9.61486 8.00033C7.35613 6.68714 4.46876 7.46781 3.16568 9.74386C1.8626 12.0199 2.63724 14.9296 4.89596 16.2427L5.59436 16.6485C5.27996 18.3723 5.27996 20.1395 5.59436 21.8634L4.89596 22.2691C2.6435 23.5857 1.87137 26.4897 3.16885 28.7648ZM19.5166 12.914C22.9915 12.914 25.8085 15.7527 25.8085 19.2543C25.8085 22.756 22.9915 25.5946 19.5166 25.5946C16.0418 25.5946 13.2248 22.756 13.2248 19.2543C13.2248 15.7527 16.0418 12.914 19.5166 12.914Z" fill="#FFFFA1"/>
</g>
<defs>
<clipPath id="clip0_357_859">
<rect width="37.7512" height="38.0419" fill="white" transform="translate(0.641418 0.233398)"/>
</clipPath>
</defs>
</svg>
