<svg width="39" height="39" viewBox="0 0 39 39" fill="none" xmlns="http://www.w3.org/2000/svg">
<g clip-path="url(#clip0_357_856)">
<path d="M16.1359 31.892C14.8564 31.8907 13.6296 31.378 12.7249 30.4662C11.8201 29.5545 11.3113 28.3183 11.3101 27.029C11.3101 26.6086 11.1443 26.2054 10.8493 25.9081C10.5544 25.6109 10.1543 25.4439 9.73709 25.4439C9.31991 25.4439 8.91982 25.6109 8.62483 25.9081C8.32985 26.2054 8.16412 26.6086 8.16412 27.029V27.1367C8.16412 27.1669 8.16412 27.1938 8.16412 27.2239C8.21662 29.3198 9.07937 31.3122 10.5685 32.7764C12.0576 34.2405 14.0554 35.0607 16.1359 35.0621H17.6019V36.6472C17.6019 37.0676 17.7676 37.4708 18.0626 37.768C18.3576 38.0653 18.7577 38.2323 19.1749 38.2323C19.5921 38.2323 19.9921 38.0653 20.2871 37.768C20.5821 37.4708 20.7478 37.0676 20.7478 36.6472V35.0621H22.2138C24.1056 35.0601 25.935 34.3802 27.3751 33.1439C28.8151 31.9076 29.7719 30.1956 30.0745 28.3138C30.3771 26.432 30.0057 24.5031 29.0267 22.8718C28.0477 21.2406 26.5249 20.0134 24.7306 19.4095L20.7478 18.0701V6.53074H22.2138C23.4934 6.532 24.7201 7.04475 25.6249 7.95647C26.5296 8.86819 27.0385 10.1044 27.0397 11.3938C27.0397 11.8141 27.2054 12.2173 27.5004 12.5146C27.7954 12.8118 28.1955 12.9788 28.6127 12.9788C29.0298 12.9788 29.4299 12.8118 29.7249 12.5146C30.0199 12.2173 30.1856 11.8141 30.1856 11.3938V11.286C30.1856 11.2559 30.1856 11.2289 30.1856 11.1988C30.1331 9.10289 29.2704 7.11053 27.7813 5.64635C26.2921 4.18218 24.2944 3.36198 22.2138 3.36058H20.7478V1.77551C20.7478 1.35512 20.5821 0.951948 20.2871 0.654688C19.9921 0.357428 19.5921 0.19043 19.1749 0.19043C18.7577 0.19043 18.3576 0.357428 18.0626 0.654688C17.7676 0.951948 17.6019 1.35512 17.6019 1.77551V3.36058H16.1359C14.2441 3.36262 12.4147 4.04254 10.9747 5.27881C9.53465 6.51508 8.57783 8.22713 8.27526 10.1089C7.97269 11.9907 8.34409 13.9196 9.32307 15.5509C10.3021 17.1821 11.8248 18.4093 13.6192 19.0132L17.6019 20.3526V31.892H16.1359ZM20.7478 21.4099L23.7365 22.4148C24.8238 22.7795 25.7469 23.5222 26.3405 24.51C26.9341 25.4978 27.1595 26.6662 26.9763 27.8062C26.7932 28.9461 26.2134 29.9832 25.3409 30.7318C24.4683 31.4804 23.3598 31.8916 22.2138 31.892H20.7478V21.4099ZM14.6133 16.0079C13.526 15.6432 12.6029 14.9005 12.0093 13.9127C11.4157 12.9249 11.1903 11.7565 11.3734 10.6166C11.5566 9.4766 12.1363 8.43952 13.0089 7.69093C13.8815 6.94233 14.9899 6.53106 16.1359 6.53074H17.6019V17.0129L14.6133 16.0079Z" fill="#FFFFA1"/>
</g>
<defs>
<clipPath id="clip0_357_856">
<rect width="37.7512" height="38.0419" fill="white" transform="translate(0.299072 0.19043)"/>
</clipPath>
</defs>
</svg>
