<svg width="32" height="32" viewBox="0 0 32 32" fill="none" xmlns="http://www.w3.org/2000/svg">
<g id="Group">
<path id="Vector" d="M31.4148 28.5936L25.2213 22.3975C29.8556 16.2044 28.592 7.42712 22.3989 2.79282C16.2059 -1.84147 7.42858 -0.577851 2.79429 5.61518C-1.84001 11.8082 -0.576386 20.5855 5.61665 25.2198C10.5914 28.9425 17.4241 28.9425 22.3989 25.2198L28.5951 31.416C29.3737 32.1946 30.6362 32.1946 31.4148 31.416C32.1934 30.6373 32.1934 29.3749 31.4148 28.5963L31.4148 28.5936ZM14.0594 24.0239C8.55536 24.0239 4.09347 19.562 4.09347 14.058C4.09347 8.55389 8.55536 4.09201 14.0594 4.09201C19.5635 4.09201 24.0254 8.55389 24.0254 14.058C24.0195 19.5595 19.5611 24.0181 14.0594 24.0239Z" fill="white"/>
</g>
</svg>
