<svg width="25" height="25" viewBox="0 0 25 25" fill="none" xmlns="http://www.w3.org/2000/svg">
<g id="trash-alt" clip-path="url(#clip0_575_169)">
<path id="Vector" d="M3.125 22.6563C3.125 23.2779 3.37193 23.874 3.81147 24.3135C4.25101 24.7531 4.84715 25 5.46875 25H19.5312C20.1529 25 20.749 24.7531 21.1885 24.3135C21.6281 23.874 21.875 23.2779 21.875 22.6563V6.25001H3.125V22.6563ZM16.4062 10.1563C16.4062 9.94906 16.4886 9.75034 16.6351 9.60383C16.7816 9.45732 16.9803 9.37501 17.1875 9.37501C17.3947 9.37501 17.5934 9.45732 17.7399 9.60383C17.8864 9.75034 17.9688 9.94906 17.9688 10.1563V21.0938C17.9688 21.301 17.8864 21.4997 17.7399 21.6462C17.5934 21.7927 17.3947 21.875 17.1875 21.875C16.9803 21.875 16.7816 21.7927 16.6351 21.6462C16.4886 21.4997 16.4062 21.301 16.4062 21.0938V10.1563ZM11.7188 10.1563C11.7188 9.94906 11.8011 9.75034 11.9476 9.60383C12.0941 9.45732 12.2928 9.37501 12.5 9.37501C12.7072 9.37501 12.9059 9.45732 13.0524 9.60383C13.1989 9.75034 13.2812 9.94906 13.2812 10.1563V21.0938C13.2812 21.301 13.1989 21.4997 13.0524 21.6462C12.9059 21.7927 12.7072 21.875 12.5 21.875C12.2928 21.875 12.0941 21.7927 11.9476 21.6462C11.8011 21.4997 11.7188 21.301 11.7188 21.0938V10.1563ZM7.03125 10.1563C7.03125 9.94906 7.11356 9.75034 7.26007 9.60383C7.40659 9.45732 7.6053 9.37501 7.8125 9.37501C8.0197 9.37501 8.21841 9.45732 8.36493 9.60383C8.51144 9.75034 8.59375 9.94906 8.59375 10.1563V21.0938C8.59375 21.301 8.51144 21.4997 8.36493 21.6462C8.21841 21.7927 8.0197 21.875 7.8125 21.875C7.6053 21.875 7.40659 21.7927 7.26007 21.6462C7.11356 21.4997 7.03125 21.301 7.03125 21.0938V10.1563ZM22.6562 1.56251H16.7969L16.3379 0.649423C16.2407 0.454215 16.0909 0.29001 15.9054 0.175281C15.72 0.0605526 15.5062 -0.00014785 15.2881 8.5609e-06H9.70703C9.48944 -0.000827891 9.27602 0.0596463 9.09121 0.174503C8.90641 0.289359 8.75769 0.453951 8.66211 0.649423L8.20312 1.56251H2.34375C2.13655 1.56251 1.93784 1.64482 1.79132 1.79133C1.64481 1.93784 1.5625 2.13656 1.5625 2.34376L1.5625 3.90626C1.5625 4.11346 1.64481 4.31217 1.79132 4.45869C1.93784 4.6052 2.13655 4.68751 2.34375 4.68751H22.6562C22.8635 4.68751 23.0622 4.6052 23.2087 4.45869C23.3552 4.31217 23.4375 4.11346 23.4375 3.90626V2.34376C23.4375 2.13656 23.3552 1.93784 23.2087 1.79133C23.0622 1.64482 22.8635 1.56251 22.6562 1.56251Z" fill="#FF6600"/>
</g>
<defs>
<clipPath id="clip0_575_169">
<rect width="25" height="25" fill="white"/>
</clipPath>
</defs>
</svg>
